<?xml version="1.0" encoding="UTF-8" standalone="no"?>
<!-- Created with Inkscape (http://www.inkscape.org/) -->
<svg id="svg3020" xmlns:rdf="http://www.w3.org/1999/02/22-rdf-syntax-ns#" xmlns="http://www.w3.org/2000/svg" xml:space="preserve" height="750.2" width="1596" version="1.1" xmlns:cc="http://creativecommons.org/ns#" xmlns:dc="http://purl.org/dc/elements/1.1/"><metadata id="metadata3026"><rdf:RDF><cc:Work rdf:about=""><dc:format>image/svg+xml</dc:format><dc:type rdf:resource="http://purl.org/dc/dcmitype/StillImage"/><dc:title/></cc:Work></rdf:RDF></metadata><defs id="defs3024"><clipPath id="clipPath3034" clipPathUnits="userSpaceOnUse"><path id="path3036" d="M0,800,1280,800,1280,0,0,0,0,800z"/></clipPath></defs><g id="g3028" transform="matrix(1.25,0,0,-1.25,0,996.37112)"><g id="g3030"><g id="g3032" clip-path="url(#clipPath3034)"><g id="g3038" transform="translate(669.4985,797.0969)"><path id="path3040" fill-rule="nonzero" fill="#4d4d4d" d="m0,0c43.325-21.116,82.813-46.22,110.94-80.826,30.805-37.897,30.58-38.223,84.341-23.125,14.956,4.2,29.615,9.261,43.773,14.904,8.322,3.316,13.959,1.704,21.942-1.046,29.132-10.034,46.442-29.681,66.439-47.249,10.633-9.341,22.153-16.684,40.066-14.013,4.109,0.612,9.927-1.349,13.484-3.57,66.048-41.244,139.36-72.198,218.45-95.061,2.694-0.778,5.237-1.879,7.85-2.829-0.406-0.901-0.813-1.801-1.219-2.701-23.266,6.207-46.832,11.808-69.737,18.743-55.08,16.677-106.99,37.984-154.31,65.959-5.593,3.306-14.679,5.079-21.646,4.404-11.183-1.083-19.196,1.248-26.53,7.369-17.689,14.764-36.159,28.981-53.247,44.154-20.444,18.154-38.982,20.918-63.877,7.934-8.277-4.317-15.972-9.422-24.661-13.12-8.16-3.473-17.28-5.565-28.01-8.896,13.62-9.638,27.124-17.22,45.062-16.622,13.872,0.462,23.144-4.792,32.951-11.345,36.999-24.721,73.096-50.531,112.6-72.564,15.727-8.772,39.223-9.765,59.573-12.56,40.151-5.515,80.597-9.706,120.86-14.735,6.196-0.774,12.077-3.092,17.822-5.762-44.616,6.209-88.892,13.957-134.97,9.336,42.819-7.618,85.638-15.236,128.46-22.854-0.342-1.272-0.684-2.543-1.026-3.815-34.218,5.345-68.142,12.967-104.9,7.731,9.208-5.25,18.417-10.5,27.625-15.75-0.421-0.843-0.843-1.685-1.264-2.528-5.053,1.388-10.59,2.15-15.077,4.271-21.288,10.062-42.514,20.225-63.349,30.848-47.407,24.17-94.651,48.538-141.73,73.096-5.542,2.89-10.562,6.998-14.222,11.363-7.437,8.872-16.345,12.015-30.617,12.978-29.086,1.964-50.963,16.132-69.213,33.238-26.159,24.52-51.267,49.742-78.068,73.817-11.007,9.887-25.112,17.698-38.072,26.207-8.878,5.829-17.327,6.757-25.492-1.551-3.856-3.924-9.138-7.458-14.719-9.775-10.235-4.25-17.781-9.398-19.249-19.03-0.362-2.373-3.078-4.93-5.568-6.64-21.22-14.575-42.959-28.695-63.894-43.513-16.781-11.878-33.75-18.4-56.692-9.692-5.355,2.033-15.809-0.212-21.48-3.262-39.381-21.183-77.771-43.496-117.22-64.593-17.109-9.147-36.001-16.25-54.044-24.335-3.431-1.537-7.968-2.714-9.809-5.092-14.092-18.207-38.287-25.513-60.701-34.358-25.573-10.091-51.997-18.861-78.052-28.205-0.693,1.121-1.387,2.243-2.08,3.365,11.943,4.722,23.886,9.444,35.829,14.166-0.155,1.296-0.311,2.591-0.466,3.887-29.03-1.102-58.059-2.204-87.089-3.306,34.251,8.205,69.367,11.561,105.19,11.658,7.161,0.02,14.312,2.231,20.993,5.269-61.937,4.421-121.68-3.961-181.6-15.911,1.979,1.099,3.825,2.407,5.97,3.243,2.66,1.037,5.488,1.997,8.381,2.452,39.945,6.286,79.791,13.035,119.92,18.497,26.059,3.547,50.274,8.36,68.342,25.264,10.378,9.71,22.992,17.956,34.847,27.051,11.523-13.531-16.61-20.306-14.668-33.212,18.995,12.295,29.932,23.699,24.851,30.603-7.989,10.857-1.383,27.861-24.291,32.729,16.757,3.383,19.899,1.346,29.103-6.2,9.667-7.924,21.845-14.037,33.366-20.458,2.145-1.196,7.118-1.055,9.51,0.095,10.852,5.214,21.247,11.011,33.058,17.26-12.328,8.026-20.372,3.368-27.8-4.322-2.437,8.087-4.619,15.33-6.927,22.987,2.27,6.811,4.899,14.697,8.073,24.219,18.333-7.305,30.69-20.302,44.491-33.333,3.666,2.006,7.044,3.855,10.215,5.591-0.85,1.573-0.97,2.49-1.613,2.883-16.762,10.253-33.598,20.432-50.375,30.67-6.817,4.16-12.167,3.329-17.795-1.86-5.78-5.328-13.015-9.675-19.008-14.878-12.663-10.995-28.459-15.609-46.902-14.093-10.831,0.889-18.629-2.262-26.97-7.303-58.773-35.52-122.29-64.37-193.4-82.184-5.982-1.498-12.108-2.643-19.053-1.967,3.316,1.256,6.579,2.61,9.956,3.756,69.425,23.562,134.29,52.898,192.16,91.417,5.728,3.812,15.524,6.634,22.698,5.842,20.212-2.229,36.055,2.254,49.707,13.638,5.775,4.817,13.586,8.299,18.571,13.502,9.997,10.433,19.505,10.256,34.442,5.021,16.19-5.674,27.528-14.768,40.111-23.439,20.004-13.784,22.857-13.706,42.612-0.497,8.7,5.817,17.134,11.932,25.065,18.381,6.963,5.662,14.344,8.103,24.051,5.025,21.856-6.931,39.305-3.189,56.542,10.134,16.063,12.417,35.984,21.78,54.201,32.493,1.979,1.164,5.344,2.174,5.658,3.583,3.785,17.014,24.463,21.372,37.581,31.381,8.465,6.443,15.93,13.678,24.99,21.564"/></g><g id="g3042" transform="translate(738.6868,469.8615)"><path id="path3044" fill-rule="nonzero" fill="#4d4d4d" d="m0,0c49.642-9.444,98.794-20.884,147.44-34.409,0.514,1.326,1.027,2.651,1.54,3.977-49.662,13.198-99.321,26.396-148.98,39.594v-9.162z"/></g><g id="g3046" transform="translate(637.3134,493.8535)"><path id="path3048" fill-rule="nonzero" fill="#4d4d4d" d="m0,0c-2.575,0.262-5.148,0.506-7.719,0.706,0.187,1.087,0.373,2.174,0.56,3.261,2.198,0.128,4.391,0.228,6.586,0.341-1.141,8.54-2.225,17.087-3.1,25.658-0.077,0.754-0.121,1.514-0.135,2.28-2.762,7.008-5.21,13.218-8.273,20.989-4.017-8.899-6.171-14.768-9.325-20.287-2.252-3.94-5.847-7.411-8.843-11.091-4.396,2.294-8.792,4.589-9.494,4.955-8.945-3.77-16.681-5.939-22.681-9.771-15.935-10.178-31.652-5.08-47.875-1.131-7.385,1.798-15.984,4.512-22.741,3.081-13.545-2.87-24.191,0.133-35.356,5.078-4.955,2.195-10.928,2.983-18.741,5.005-0.705,0.967-2.961,4.063-5.481,7.52-3.475-4.065-6.063-7.093-9.473-11.084-3.391,5.905-5.894,10.264-9.082,15.818-2.183-5.68-3.714-9.663-5.244-13.645-1.099,0.139-2.197,0.277-3.295,0.416-3.597,13.334-7.195,26.668-10.792,40.002l-2.474-0.132c-3.755-12.38-7.509-24.76-11.264-37.14-0.979,0.036-1.958,0.072-2.937,0.109-3.856,10.968-7.713,21.936-12.016,34.175-3.027-13.203-5.621-24.518-8.215-35.832-1.584,0.093-3.168,0.186-4.751,0.28-2.671,12.698-5.342,25.397-8.013,38.096-0.746-0.143-1.493-0.285-2.239-0.427-2.496-8.25-4.991-16.499-7.486-24.748-0.955,0.111-1.909,0.223-2.864,0.335-3.489,13.374-6.977,26.749-10.466,40.123-4.11-14.962-5.049-29.887-17.443-42.806-2.149,9.798-4.299,19.596-6.75,30.77-10.024-14.916,0.373-35.272-26.326-42.209-1.935,5.034-4.042,10.517-7.004,18.226-4.066-9.388-6.993-16.145-10.866-25.087-4.176,7.885-7.118,13.442-10.675,20.159-3.282-5.968-5.642-11.037-8.851-15.752-1.476-2.168-4.31-4.753-7.063-5.22-8.081-1.371-16.521-1.405-24.661-2.616-62.107-9.241-124.21-18.501-186.22-28.125-9.832-1.526-19.194-4.907-28.773-7.431,0.307-1.06,0.615-2.121,0.922-3.182,147.19,25.935,296.02,35.299,446.48,29.26,64.56-2.592,128.4-8.085,191.49-16.625-0.352,2.566-0.705,5.132-1.053,7.698"/></g><g id="g3050" transform="translate(737.3629,491.3529)"><path id="path3052" fill-rule="nonzero" fill="#4d4d4d" d="m0,0c0.597-2.455,0.999-4.979,1.191-7.555,37.759-3.17,75.74-5.325,113.1-10.311,40.042-5.344,79.398-13.829,119.06-20.938-1.955,1.699-4.268,2.861-6.793,3.546-73.89,20.025-149.23,32.485-226.56,35.258"/></g><g id="g3054" transform="translate(1045.5088,473.2664)"><path id="path3056" fill-rule="nonzero" fill="#4d4d4d" d="m0,0c-3.275,2.501-6.867,3.678-10.589,4.04-43.471,4.228-86.951,8.401-130.45,12.439-18.63,1.729-37.312,3.108-55.971,4.647,0.079,1.069,0.157,2.139,0.236,3.208,118.48-5.594,236.07-15.573,349.72-44.959-58.815,22.089-121.79,32.93-185.22,42.592,0.235,1.355,0.471,2.71,0.706,4.065,59.432-4.301,118.86-8.601,178.87-12.943-6.181,1.626-12.009,3.793-18.139,4.667-34.767,4.957-69.713,9.183-104.38,14.539-16.936,2.617-33.391,7.144-51.747,11.176-0.75-0.422-3.751-2.109-7.377-4.147-2.763,3.393-5.056,6.21-8.025,9.856-4.387-5.072-6.77-7.827-11.023-12.744-3.644,12.073-6.605,21.881-10.303,34.134-2.962-8.227-5.011-13.92-7.06-19.613-0.762,0.095-1.525,0.19-2.287,0.286-1.62,7.023-3.241,14.046-4.861,21.069l-3.68-0.238c-2.158-8.465-4.315-16.929-7.301-28.643-3.849,9.282-6.392,15.415-9.171,22.115-7.348-9.461-13.801-17.768-20.984-27.016-5.144,4.636-7.664,6.907-10.403,9.376-3.291-4.97-5.961-9.003-8.631-13.036-0.459,1.092-0.918,2.183-1.377,3.275-17.616-0.626-35.259-0.957-52.839-1.96-17.297-0.987-34.233-2.089-42.293,15.901-5.839-9.985-11.524-17.698-24.778-8.739-3.175-3.008-5.933-5.622-6.785-6.429-11.124,0.395-19.934,0.708-31.348,1.114-2.102,5.232-5.409,13.466-9.617,23.94-2.94-5.709-5.122-9.947-8.221-15.964,0.508-4.579,1.052-9.153,1.644-13.721,0.047-0.346,0.095-0.692,0.143-1.038,1.206-2.029,2.264-4.152,3.167-6.35,96.64-4.841,190.6-23.359,283.1-49.274,0.392,0.953,0.784,1.907,1.176,2.861-30.144,9.376-60.289,18.752-90.433,28.129,0.27,0.872,0.539,1.744,0.809,2.616,38.588-3.077,77.159-6.154,115.73-9.231"/></g><g id="g3058" transform="translate(769.1396,584.0502)"><path id="path3060" fill-rule="nonzero" fill="#4d4d4d" d="m0,0c8.235-16.543,16.471-33.085,24.706-49.628-0.625-0.335-1.25-0.67-1.874-1.005-4.085,3.655-9.2,6.874-12.08,11.039-14.395,20.812-28.551,41.738-41.945,62.951-2.921,4.625-3.798,10.688-3.187,15.914,2.235,19.113-6.075,35.025-21.324,49.46-3.945,3.733-8.856,8.722-8.606,12.964,1.125,19.112-12.218,26.684-33.059,28.004,2.617,16.517,5.125,32.351,7.741,48.862,49.924-19.982,72.41-59.757,104.97-95.299-21.897,12.092-41.475,22.904-61.061,33.719,1.599-11.406,8.047-19.815,19.364-27.98,8.622-6.222,13.821-17.3,15.802-26.822,5.011-24.078,20.025-43.351,43.571-57.878,29.254-18.048,60.407-34.213,90.775-51.153,3.882-2.165,7.978-4.096,11.131-7.249-49.381,10.251-88.424,35.503-134.92,54.102"/></g><g id="g3062" transform="translate(738.6868,453.8906)"><path id="path3064" fill-rule="nonzero" fill="#4d4d4d" d="M0,0c4.262-0.627,8.525-1.263,12.789-1.917-3.899,1.305-8.179,2.578-12.789,3.819v-1.902z"/></g><g id="g3066" transform="translate(640.0342,472.7762)"><path id="path3068" fill-rule="nonzero" fill="#4d4d4d" d="m0,0c-157.56,18.449-400.51,20.37-461.83-2.65h45.861c-49.23-12.034-98.169-23.998-147.11-35.961,0.606-1.583,1.212-3.166,1.818-4.749,185.52,45.843,373.01,55.074,562,36.511-0.233,2.284-0.483,4.567-0.745,6.849"/></g><g id="g3070" transform="translate(434.026,551.8505)"><path id="path3072" fill-rule="nonzero" fill="#4d4d4d" d="m0,0c46.759,21.04,87.573,52.937,149.62,46.068-0.308,1.221-0.615,2.443-0.923,3.665-2.438,0.888-4.817,2.412-7.325,2.555-12.8,0.728-21.38,6.016-30,13.255-19.94,16.739-46.048,14.411-70.941,10.043-17.099-3.001-33.277-9.211-51.132-13.144,33.18,13.194,58.781,31.946,75.951,61.39,12.904-8.016,26.583-16.525,40.28-25.016,5.306-3.288,11.089-6.189,15.887-9.878,7.667-5.896,15.15-12.015,21.895-18.554,13.345-12.94,23.161-13.494,40.277-4.311,18.436,9.891,31.058,21.425,36.656,39.256,2.235,7.119,16.919,11.845,25.565,17.422-1.383,1.473-0.319,0.723-0.487,0.464-12.09-18.63-22.4-38.223-37.23-55.422-7.69-8.91-24.14-12.905-35.32-20.322-15.7-10.403-32.99-16.089-53.56-17.03-38.671-1.768-72.994-13.888-106.05-28.654-3.988-1.781-8.149-3.326-12.229-4.98-0.313,1.066-0.626,2.132-0.939,3.198"/></g><g id="g3074" transform="translate(528.0624,549.0764)"><path id="path3076" fill-rule="nonzero" fill="#4d4d4d" d="m0,0c27.37,12.14,55.292,23.591,81.934,36.64,21.127,10.348,44.565,19.544,51.62,41.274,1.376,4.235,5.897,8.177,10.004,11.461,6.353,5.079,10.81,9.992,6.959,17.552-0.878,1.725,0.475,4.474,1.64,6.449,4.318,7.322,8.987,14.518,13.402,21.567,0.2-0.275,2.996-2.381,3.138-4.591,0.882-13.805,11.018-23.92,19.42-35.302,6.589-8.925,5.239-21.279,8.505-31.906,3.775-12.284,8.586-24.382,13.308-36.475,1.109-2.841,3.662-5.338,3.294-10.097-3.116,1.628-6.777,2.863-9.255,4.954-11.118,9.381-21.624,19.211-32.878,28.488-11.949,9.851-18.511,8.64-30.899-0.691-14.45-10.905-29.03-23.57-46.808-29.499-29.408-9.807-61.42-14.835-92.335-21.877-0.346,0.682-0.691,1.363-1.037,2.045"/></g><g id="g3078" transform="translate(738.6868,438.128)"><path id="path3080" fill-rule="nonzero" fill="#4d4d4d" d="M0,0c20.296-2.884,40.585-6.075,60.867-9.606-15.32,5.925-36.126,11.231-60.867,15.86v-6.254z"/></g><g id="g3082" transform="translate(641.5543,457.435)"><path id="path3084" fill-rule="nonzero" fill="#4d4d4d" d="m0,0c-133.63,12.726-306.15,12.235-401.79-5.838-0.776-0.147-1.355-0.933-2.513-1.774,2.049-1.966,4.094-3.927,6.672-6.4-6.314-2.42-11.863-4.547-17.412-6.673,139.12,21.664,277.56,24.989,415.61,12.596-0.158,2.699-0.346,5.395-0.566,8.089"/></g><g id="g3086" transform="translate(1050.8533,533.5158)"><path id="path3088" fill-rule="nonzero" fill="#4d4d4d" d="m0,0c-17.353,7.296-34.428,15.038-52.133,21.765-18.955,7.202-38.874,12.873-57.677,20.291-15.415,6.081-29.568,14.098-44.805,20.491-4.567,1.916-10.9,1.255-16.424,1.774-0.167-4.414-2.111-9.388-0.179-13.141,6.622-12.859,14.604-25.289,19.558-39.424-12.043,12.685-26.659,24.363-35.552,38.28-14.914,23.339-34.362,43.539-57.281,62.073-1.922,1.554-3.398,3.446-2.946,7.363,14.14-7.407,28.6-14.472,42.329-22.319,12.648-7.23,25.262-12.983,41.713-14.103,8.36-0.569,16.324-5.977,24.173-9.589,17.743-8.163,35.285-16.592,52.947-24.863,6.378-2.986,13.216-5.443,19.243-8.802,22.623-12.603,44.993-25.481,67.455-38.256-0.138-0.513-0.277-1.025-0.415-1.538"/></g><g id="g3090" transform="translate(952.136,641.437)"><path id="path3092" fill-rule="nonzero" fill="#4d4d4d" d="M0,0c-0.61-3.559-1.089-6.355-1.75-10.216-10.774,20.612-21.02,40.215-30.804,58.932,9.761-0.896,19.827-7.693,29.659-18.552,11.421-12.612,23.769-24.791,36.83-36.389,9.704-8.616,19.349-16.467,26.489-27.193,9.873-14.832,25.719-27.23,41.266-42.956-23.924,9.48-36.761,24.324-51.695,37.87-14.936,13.549-32.588,25.266-49.995,38.504"/></g><g id="g3094" transform="translate(1076.2385,577.7602)"><path id="path3096" fill-rule="nonzero" fill="#4d4d4d" d="m0,0c-10.051,14.943-38.665,22.736-33.944,47.55,6.164-3.523,14.286-6.477,19.391-11.361,29.81-28.522,70.198-43.733,112.82-56.366,2.714-0.805,5.353-1.765,8.027-2.652-0.577-1.193-1.154-2.386-1.731-3.579-21.366,6.203-42.825,12.222-64.053,18.704-7.817,2.387-14.807,6.531-22.721,8.583-4.401,1.14-9.929-0.378-17.786-0.879"/></g><g id="g3098" transform="translate(378.359,373.4341)"><path id="path3100" fill-rule="nonzero" fill="#4d4d4d" d="m0,0c-9.397-8.457-18.819-16.887-28.196-25.367-6.473-5.854-12.868-11.793-19.335-17.653-3.043-2.758-6.271-5.318-9.224-8.166-0.14-0.135-1.301-1.131-1.43-1.234,0.57-1.37,1.262-2.639,2.067-3.814,0.14,0.17,1.335,1.239,1.534,1.414,3.124,2.742,6.171,5.573,9.161,8.286,0.033-0.425,0.173-1.413,0.174-2.401,0-1.731-0.154-3.464-0.115-5.192,0.036-1.557,0.763-2.425,2.82-1.856,0,3.828-0.138,7.711,0.077,11.574,0.071,1.294,0.728,2.866,1.653,3.75,4.067,3.888,8.352,7.546,12.517,11.333,11.302,10.275,22.579,20.577,33.877,30.856,0.394,0.358,1.935,1.779,2.339,2.126,0.342,1.354,0.526,2.724,0.568,4.113-2.402-2.281-6.023-5.552-8.487-7.769"/></g><g id="g3102" transform="translate(322.7737,317.094)"><path id="path3104" fill-rule="nonzero" fill="#c1272d" d="m0,0c-0.956,1.324-1.781,2.756-2.442,4.321-0.844-0.25-1.461,0.314-2.128,1.316-0.995,1.494-1.897,3.077-3.083,4.403-0.461,0.516-1.687,0.763-2.389,0.551-1.048-0.316-2.01-4.346-1.277-5.254,2.727-3.377,3.635-7.924,7.156-10.816,1.376-1.129,4.237-1.679,5.556-0.511,1.728,1.532,0.079,2.675-0.655,3.723-0.591,0.843-0.875,1.564-0.738,2.267"/></g><g id="g3106" transform="translate(471.3835,329.2897)"><path id="path3108" fill-rule="nonzero" fill="#4d4d4d" d="m0,0c-8.833-12.915-20.151-28.305-28.812-40.967,2.486-5.435,6.83-9.964,11.893-13.493-0.296,0.38,0.808,2.095,0.482,2.422-2.102,2.111-5.677,2.795-7.751,4.932-0.387,0.399-0.779,1.292-0.591,1.674,2.144,4.377,5.799,10.054,8.025,14.39,0.472-3.615,0.328-7.155,0.543-10.673,0.085-1.399,0.964-2.75,1.481-4.123,0.337,0.076,0.674,0.153,1.011,0.229,0.122,0.981,0.354,1.964,0.346,2.945-0.034,4.504-0.353,9.02-0.119,13.508,0.114,2.2,0.763,4.638,1.944,6.469,3.885,6.023,8.207,11.761,12.196,17.719,0.994,1.485,1.596,1.879,1.733,2.084-0.865,0.898-1.671,1.849-2.381,2.884"/></g><g id="g3110" transform="translate(819.4131,334.6143)"><path id="path3112" fill-rule="nonzero" fill="#4d4d4d" d="m0,0c0.244-2.307,0.266-4.637,0.377-6.958,0.189-0.011,0.377-0.023,0.566-0.034,0.166,1.51,0.333,3.02,0.563,5.104,0.923-1.089,1.679-1.979,2.38-2.805,0.603,0.58,1.247,1.104,1.93,1.567-4.267,5.448-8.896,11.338-13.513,17.269-5.603,7.199-11.013,14.559-16.857,21.556-0.179,0.215-0.333,0.428-0.49,0.642-0.267-0.766-0.482-1.549-0.682-2.34,0.308-0.281,0.558-0.522,0.767-0.791,7.973-10.219,15.94-20.443,23.866-30.698,0.547-0.706,1.001-1.641,1.093-2.512"/></g><g id="g3114" transform="translate(830.0983,332.5236)"><path id="path3116" fill-rule="nonzero" fill="#c1272d" d="m0,0c-0.799,0.493-2.738-0.859-4.507-1.497-0.118,0.15-0.244,0.311-0.362,0.462-0.675-0.45-1.311-0.964-1.904-1.539,0.213-0.252,0.426-0.503,0.636-0.751,1.085-1.281,1.622-2.53,0.534-4.205-0.274-0.421,0.369-2.063,0.867-2.211,0.744-0.22,2.126,0.11,2.539,0.696,0.897,1.275,1.291,2.891,2.004,4.311,0.811,1.616,2.216,3.485,0.193,4.734"/></g><g id="g3118" transform="translate(906.5243,312.6083)"><path id="path3120" fill-rule="nonzero" fill="#4d4d4d" d="m0,0c-3.685,3.545-7.618,7.31-11.527,11.13-16.612,16.234-33.186,32.506-49.815,48.723-9.619,9.38-19.41,18.586-28.906,28.087-0.318,0.319-0.616,0.658-0.904,1.008-0.836-0.669-1.588-1.42-2.287-2.22,5.833-5.367,11.45-10.975,17.157-16.482,12.007-11.585,24.024-23.16,36.023-34.754,9.127-8.819,18.186-17.709,27.39-26.446,1.664-1.579,2.432-3.127,2.308-5.388-0.181-3.285-0.162-6.584-0.116-9.875,0.012-0.82,0.232-1.635,0.477-2.451,0.342,0.065,0.804,0.13,0.804,0.196v12.912c2.855-2.521,5.285-4.756,7.579-6.892,0.575,0.835,1.186,1.649,1.817,2.452"/></g><g id="g3122" transform="translate(911.2272,313.0152)"><path id="path3124" fill-rule="nonzero" fill="#c1272d" d="m0,0c-1.233-0.38-2.433-0.75-3.857-1.19-0.313,0.302-0.643,0.619-0.96,0.925-0.628-0.799-1.238-1.608-1.807-2.442,0.668-0.623,1.328-1.241,1.984-1.856-1.399-2.549-2.34-4.494-3.419-6.425-1.033-1.847-0.17-3.436,1.875-3.751,2.076-0.319,3.426,0.432,4.376,2.312,1.295,2.56,2.713,5.074,4.184,7.733-1.148,1.393-2.064,2.941-2.376,4.694"/></g><g id="g3126" transform="translate(916.4268,308.2869)"><path id="path3128" fill-rule="nonzero" fill="#4d4d4d" d="m0,0c0.34-0.217,0.981-0.461,1.389-0.912,1.652-1.825,3.24-3.711,4.844-5.581,5.898-6.876,11.773-13.775,17.696-20.629,11.283-13.058,22.577-26.107,33.906-39.124,2.816-3.236,3.501-6.947,2.988-11.049-0.363-2.899-0.64-5.808-0.961-8.712-0.312-2.817-0.753-5.628-0.882-8.453-0.045-0.983,0.453-2.665,1.083-2.872,1.575-0.516,2.581,0.614,2.713,2.246,0.467,5.752,0.889,11.508,1.319,17.264,0.078,1.046,0.113,2.095,0.167,3.142,4.056-5.696,7.696-11.349,11.086-17.148,0.274-0.469,0.576-0.951,0.845-1.449,1.601,2.954,3.054,5.983,4.256,9.136-3.307,3.674-6.548,7.098-9.405,10.8-1.8,2.333-4.761,4.056-4.746,7.683,0.003,0.673-1.464,1.406-2.323,2.013-0.862,0.609-2.017,0.912-2.69,1.665-3.643,4.074-7.156,8.264-10.751,12.382-7.92,9.075-15.852,18.139-23.798,27.19-7.833,8.922-15.744,17.774-23.521,26.744-7.616,8.784-15.042,17.732-22.668,26.508-9.799,11.278-19.744,22.43-29.57,33.685-7.312,8.376-14.502,16.858-21.81,25.237-4.713,5.404-9.604,10.653-14.304,16.068-9.585,11.044-19.057,22.186-28.647,33.227-7.784,8.962-15.71,17.802-23.502,26.757-8.407,9.663-16.728,19.401-25.095,29.099-1.788,2.072-5.477,6.188-7.25,8.274-0.608-1.309-1.055-2.701-1.535-4.064,55.69-64.59,113.3-131.21,169.04-195.85"/></g><g id="g3130" transform="translate(1012.969,228.2531)"><path id="path3132" fill-rule="nonzero" fill="#c1272d" d="M0,0c0.808,1.813,1.017,3.813-0.962,5.086-1.988,1.278-4.117,2.344-6.221,3.433-1.692,0.875-2.629,0.134-3.347-1.514-1.66-3.812-3.47-7.559-5.303-11.513-0.173,0.195-0.344,0.38-0.517,0.574-1.275-3.256-2.805-6.386-4.483-9.441,0.369-1.037,0.442-2.163-0.25-3.432-1.22-2.235-2.201-4.602-3.24-6.933-2.75-6.171-2.352-4.653,2.763-6.883,3.297-1.437,7.309-0.529,8.461,1.772,0.685,1.368,1.058,2.896,1.766,4.25,0.952,1.821,1.454,3.845,4.03,4.58,2.754,0.786,3.035,2.571,1.669,4.987-0.384,0.679-0.478,1.839-0.168,2.541,1.857,4.199,3.934,8.299,5.802,12.493"/></g><g id="g3134" transform="translate(379.9314,421.1424)"><path id="path3136" fill-rule="nonzero" fill="#4d4d4d" d="m0,0c-2.015-1.655-6.717-5.294-8.897-6.777-5.046-3.434-9.608-7.57-14.525-11.204-8.84-6.533-17.785-12.924-26.678-19.385-7.968-5.788-15.953-11.551-23.879-17.395-8.903-6.565-17.759-13.194-26.613-19.824-0.732-0.547-2.684-2.149-3.164-2.429,0.422-0.819,0.886-1.615,1.388-2.386,0.19,0.195,1.8,1.587,2.087,1.799,3.744,2.769,7.302,5.787,11.011,8.604,5.221,3.967,10.48,7.885,15.777,11.749,9.63,7.026,19.313,13.979,28.95,20.995,11.564,8.419,23.1,16.876,34.663,25.298,0.353,0.257,0.864,0.3,1.371,0.466-0.603-2.457-1.153-4.696-1.703-6.935,0.28-0.113,0.561-0.225,0.841-0.338,0.528,1.049,1.127,2.069,1.57,3.152,1.096,2.676,1.079,5.911,4.032,7.632,0.403,0.236,3.416,2.578,3.799,2.877-0.009,1.366-0.028,2.733-0.041,4.101"/></g><g id="g3138" transform="translate(815.7593,401.3435)"><path id="path3140" fill-rule="nonzero" fill="#c1272d" d="m0,0c-1.453,1.984-2.586,4.287-3.961,6.354-3.169,4.761-6.312,9.541-9.543,14.26-5.297,7.734-10.641,15.435-15.992,23.131-5.8,8.342-11.69,16.623-17.434,25.003-7.077,10.325-14.036,20.73-21.064,31.088-1.489,2.194-3.077,4.32-4.571,6.51-0.331,0.485-0.455,1.11-0.674,1.671,0.261,0.17,0.522,0.34,0.784,0.511,1.04-1.207,2.081-2.414,3.122-3.621,0.479,1.363,0.957,2.722,1.593,4.005-4.867,5.724-9.739,11.444-14.884,16.905-2.792,2.963-4.613,6.548-7.672,9.393-4.443,4.132-8.063,9.227-11.603,14.218-1.694,2.389-1.792,5.71-4.012,8.039-9.189,9.639-16.417,20.718-23.235,32.082-2.446,4.078-4.809,4.605-8.65,1.865-2.137-1.526-4.185-3.22-6.469-4.483-1.996-1.104-4.281-1.677-6.414-2.544-4.568-1.857-9.082-3.855-13.691-5.604-5.411-2.054-10.91-3.875-16.35-5.855-4.07-1.481-8.057-3.207-12.171-4.549-5.995-1.957-12.042-3.773-18.12-5.456-7.733-2.142-15.437-4.545-23.308-5.997-7.854-1.449-15.881-2.297-23.865-2.633-12.959-0.547-25.95-0.695-38.868,1.039-2.06,0.277-3.871-0.065-5.412-1.685-4.098-4.31-8.257-8.562-12.434-12.796-7.217-7.315-14.437-14.629-21.709-21.889-8.304-8.291-16.7-16.491-24.996-24.79-7.276-7.279-14.433-14.677-21.709-21.955-8.433-8.435-16.755-16.993-25.457-25.143-9.838-9.214-18.359-19.806-28.691-28.511,0.009-1.387,0.025-2.773,0.028-4.158,0.548,0.396,1.107,0.728,1.712,0.85,2.113,0.427,4.436,0.427,6.526-0.04,0.581-0.13,0.875-2.537,0.92-3.913,0.317-9.518,0.575-19.039,0.718-28.562,0.014-0.967-0.635-2.175-1.357-2.881-0.041-0.04-0.083-0.078-0.124-0.118,0.023-1.345-0.077-2.676-0.314-3.991,0.491,0.411,0.984,0.821,1.472,1.236,0.276-0.166,0.553-0.331,0.829-0.497,0-1.017,0.057-2.037-0.009-3.05-0.377-5.776-0.918-11.546-1.138-17.328-0.193-5.091-0.039-5.096,4.843-6.694,0.082-0.027,0.156-0.081,0.238-0.105,4.008-1.185,7.991-2.46,12.031-3.524,4.052-1.067,8.184-1.829,12.237-2.892,5.937-1.557,11.822-3.311,17.752-4.892,6.602-1.761,13.231-3.422,19.848-5.124,1.74-0.448,3.481-0.891,5.223-1.33,3.774-0.95,7.549-1.896,11.773-2.957-0.275-0.401-0.544-0.795-0.818-1.195,0.686-1.059,1.477-2.026,2.336-2.935,1.907,2.798,2.388,2.82,6.586,1.883,5.997-1.338,11.967-2.803,17.917-4.337,5.944-1.533,11.842-3.245,17.772-4.832,6.195-1.658,12.374-3.397,18.621-4.835,3.57-0.822,7.264-1.562,10.9-1.55,6.986,0.023,13.968,0.66,20.955,0.948,12.372,0.511,24.746,0.944,37.119,1.426,9.152,0.357,18.302,0.769,27.455,1.103,2.177,0.08,4.354,0.154,6.531,0.232,43.577,98.858,46.001,273.99,46.001,273.99s13.401-175.09,53.559-270.3c1.71,0.07,3.419,0.148,5.129,0.214,10.531,0.407,21.066,0.752,31.601,1.058,5.543,0.16,11.089,0.183,16.634,0.257,3.512,0.047,3.595,0.094,3.596,3.706,0.006,13.343-0.012,26.686-0.007,40.029,0,0.889,0.113,1.778,0.199,3.048,0.081-0.078,0.146-0.136,0.222-0.206,0.234,0.886,0.497,1.759,0.838,2.607-1.034,1.818-1.329,3.67-1.175,5.823,0.318,4.468,0.702,8.934,0.871,13.407,0.161,4.241,0.139,8.492,0.08,12.736-0.025,1.797,0.468,2.56,2.402,2.183,2.859-0.557,5.807-0.734,8.614-1.467,2.338-0.611,4.994-1.271,6.7-2.808,0.409-0.368,0.807-0.749,1.213-1.12,0.725,0.839,1.515,1.628,2.394,2.333"/></g><g id="g3142" transform="translate(279.6585,340.2492)"><path id="path3144" fill-rule="nonzero" fill="#c1272d" d="M0,0c-0.063,0.048-0.127,0.097-0.189,0.145-0.758,0.577-1.101,1.074-1.064,1.569-0.646,0.952-1.237,1.939-1.762,2.965-0.98-0.226-1.747,0.362-3.472,1.754-0.74,0.597-2.255,0.234-3.415,0.311-0.038-1.204-0.477-2.598-0.018-3.566,0.631-1.329,1.803-2.514,2.992-3.442,2.065-1.61,3.692-4.23,7.033-3.324,1.394,0.378,1.598,1.091,1.22,2.016-0.46,0.51-0.901,1.034-1.325,1.572"/></g><g id="g3146" transform="translate(443.3039,288.7025)"><path id="path3148" fill-rule="nonzero" fill="#c1272d" d="M0,0c-0.001-0.001-0.002-0.003-0.003-0.004-1.642,1.523-2.986,2.769-4.57,4.237-1.129-1.306-2.057-2.509-3.121-3.577-1.653-1.658-0.888-2.967,0.39-4.344,0.782-0.842,1.435-1.805,2.148-2.712,0.529-0.673,0.952-1.487,1.612-1.987,1.903-1.441,4.126-2.523,5.819-4.164,4.283-4.151,7.178-1.678,12.716,0.048-5.355,3.584-12.261,6.88-14.991,12.503"/></g><g id="g3150" transform="translate(683.6281,574.2)"><path id="path3152" fill-rule="nonzero" fill="#c1272d" d="m0,0s0.106-4.016,0.29-11.043c0.074-3.514,0.163-7.78,0.265-12.674,0.106-4.894,0.227-10.416,0.286-16.439,0.077-6.024,0.16-12.549,0.248-19.451,0.086-6.902,0.199-14.18,0.228-21.709,0.042-7.53,0.086-15.31,0.13-23.216,0.017-7.906,0.035-15.937,0.052-23.968-0.017-8.031-0.034-16.062-0.051-23.968-0.043-7.906-0.086-15.686-0.127-23.216-0.089-15.058-0.345-29.113-0.477-41.16-0.059-6.023-0.177-11.545-0.286-16.439-0.102-4.894-0.192-9.16-0.266-12.674-0.186-7.02-0.292-11.04-0.292-11.04s-0.106,4.016-0.292,11.043c-0.074,3.514-0.164,7.78-0.267,12.674-0.108,4.894-0.226,10.416-0.285,16.439-0.132,12.047-0.388,26.102-0.477,41.16-0.041,7.53-0.084,15.31-0.127,23.216-0.017,7.906-0.034,15.937-0.051,23.968,0.017,8.031,0.035,16.062,0.052,23.968,0.044,7.906,0.088,15.686,0.13,23.216,0.029,7.529,0.142,14.807,0.228,21.709,0.088,6.902,0.171,13.427,0.248,19.451,0.059,6.023,0.18,11.545,0.286,16.439,0.102,4.894,0.191,9.16,0.265,12.674,0.184,7.025,0.29,11.041,0.29,11.041"/></g></g></g></g></svg>
