<?xml version="1.0" standalone="no"?>
<!DOCTYPE svg PUBLIC "-//W3C//DTD SVG 20010904//EN"
 "http://www.w3.org/TR/2001/REC-SVG-20010904/DTD/svg10.dtd">
<svg version="1.0" xmlns="http://www.w3.org/2000/svg"
 width="1596.000000pt" height="1596.000000pt" viewBox="0 0 1596.000000 1596.000000"
 preserveAspectRatio="xMidYMid meet">
<metadata>
Created by potrace 1.11, written by Peter Selinger 2001-2013
</metadata>
<g transform="translate(0.000000,1596.000000) scale(0.100000,-0.100000)"
fill="#000000" stroke="none">
<path d="M8260 11634 c-150 -136 -237 -199 -390 -284 -160 -90 -238 -159 -266
-237 l-18 -51 -196 -108 c-262 -145 -403 -231 -537 -326 -186 -132 -297 -172
-468 -172 -77 0 -124 6 -205 28 -121 32 -200 32 -265 -2 -22 -11 -85 -55 -140
-97 -152 -117 -335 -241 -406 -275 -78 -37 -130 -38 -201 -7 -29 13 -145 86
-257 162 -294 199 -468 275 -626 275 -89 0 -128 -18 -226 -102 -42 -35 -94
-75 -115 -88 -21 -13 -78 -52 -125 -87 -186 -135 -282 -164 -554 -167 -228 -3
-240 -7 -432 -128 -653 -415 -1313 -729 -2178 -1038 -293 -104 -295 -106 -158
-97 134 8 574 134 955 273 485 176 1014 429 1503 717 65 39 153 86 195 105
l75 36 200 7 c225 8 302 24 414 85 60 33 256 178 366 270 79 66 135 80 198 48
50 -26 640 -385 660 -402 9 -8 17 -19 17 -23 0 -5 -27 -22 -60 -39 l-60 -30
-129 115 c-70 64 -155 136 -187 161 -74 55 -233 139 -244 127 -4 -4 -29 -73
-55 -152 l-48 -144 43 -143 c24 -79 46 -144 48 -144 2 0 20 14 40 31 46 41
108 69 153 69 37 0 125 -26 134 -40 6 -10 -34 -34 -244 -142 -215 -111 -211
-111 -385 -14 -145 82 -175 101 -298 192 -119 89 -146 98 -256 91 -100 -6
-120 -18 -60 -36 42 -13 100 -50 126 -81 20 -24 41 -75 68 -167 13 -46 36
-106 50 -134 24 -45 26 -54 15 -88 -15 -53 -112 -155 -216 -229 -49 -34 -90
-60 -93 -58 -15 16 21 72 98 151 109 112 127 143 111 197 -7 22 -18 41 -26 44
-16 6 -278 -186 -410 -300 -251 -219 -414 -277 -1005 -361 -246 -34 -578 -85
-1110 -170 -275 -44 -383 -69 -424 -100 -19 -15 -19 -15 1 -15 12 0 55 7 95
15 349 74 874 146 1283 176 191 15 688 17 780 4 l60 -8 -75 -24 c-68 -22 -101
-26 -340 -34 -263 -9 -464 -25 -675 -55 -141 -19 -415 -73 -435 -85 -9 -5 34
-7 115 -4 395 17 876 35 909 35 33 0 37 -3 34 -22 -2 -18 -34 -34 -198 -100
-265 -105 -243 -94 -230 -118 6 -11 17 -20 24 -20 22 0 636 220 973 348 456
174 567 234 708 378 l71 72 284 122 c388 166 521 235 1210 620 467 261 758
419 806 435 79 28 169 30 237 6 152 -53 302 -50 458 10 84 32 103 44 719 462
344 233 354 242 377 313 27 87 76 135 204 198 109 54 187 105 224 146 34 37
90 60 149 60 70 0 124 -28 372 -192 217 -144 263 -184 849 -743 468 -446 491
-467 625 -557 202 -137 360 -193 620 -224 128 -15 212 -34 265 -61 16 -9 68
-53 115 -98 47 -45 105 -95 130 -112 67 -44 1375 -721 1945 -1005 483 -242
683 -335 769 -358 80 -22 106 -21 106 4 0 7 -73 55 -165 107 l-165 94 53 8
c98 14 456 9 602 -8 114 -13 425 -60 606 -91 32 -5 38 -3 44 16 4 12 3 25 -2
30 -4 4 -345 67 -758 139 -412 73 -759 136 -770 140 -41 17 277 24 510 12 251
-13 444 -33 822 -86 136 -19 255 -35 263 -34 20 1 -53 35 -115 54 -27 8 -329
48 -670 89 -1161 140 -1366 168 -1503 206 -165 46 -461 225 -1256 758 -225
151 -436 287 -470 302 -86 38 -133 48 -276 56 -192 10 -298 46 -474 159 -42
27 -55 40 -45 45 8 4 64 22 124 40 146 42 245 84 390 165 272 150 402 186 564
155 120 -22 211 -74 371 -210 180 -153 671 -554 700 -571 64 -39 122 -51 270
-54 171 -3 206 -13 362 -103 474 -273 1045 -519 1673 -721 367 -118 1029 -293
1045 -277 29 29 23 32 -270 122 -907 278 -1673 611 -2390 1039 -235 140 -204
129 -380 136 -127 5 -165 10 -213 28 -89 35 -187 107 -357 262 -318 290 -484
401 -720 479 -133 45 -178 42 -352 -24 -182 -69 -328 -115 -548 -176 -290 -79
-317 -85 -430 -85 -96 0 -110 3 -164 29 -74 36 -153 114 -321 316 -169 202
-237 273 -370 388 -179 154 -383 300 -615 437 -127 75 -431 235 -446 234 -5 0
-56 -43 -114 -95z"/>
<path d="M8495 11288 c-11 -31 -95 -590 -90 -599 4 -5 21 -9 39 -9 51 0 185
-37 232 -65 85 -50 134 -140 134 -247 0 -67 17 -95 126 -210 104 -110 137
-154 182 -243 54 -108 64 -157 66 -320 3 -183 -1 -172 166 -430 251 -385 419
-622 473 -667 78 -65 82 -68 96 -59 9 6 -26 84 -139 311 -83 166 -150 303
-148 305 5 5 313 -132 573 -255 299 -140 492 -224 660 -285 123 -44 328 -105
405 -119 l35 -7 -31 27 c-16 14 -165 100 -330 191 -625 344 -906 508 -1031
602 -152 114 -285 275 -353 425 -16 34 -45 121 -65 192 -38 133 -85 237 -134
290 -15 17 -64 61 -109 98 -98 81 -150 149 -179 236 -12 35 -21 66 -19 67 1 2
167 -88 367 -198 200 -111 371 -204 379 -207 8 -3 -4 16 -28 43 -24 28 -132
156 -240 285 -216 259 -462 513 -590 609 -113 85 -229 156 -340 208 -105 49
-101 47 -107 31z"/>
<path d="M11502 10384 c5 -22 373 -723 380 -724 3 0 9 22 13 50 4 27 11 52 15
55 8 5 297 -204 455 -330 50 -39 139 -116 198 -171 199 -182 261 -234 347
-293 77 -53 238 -141 257 -141 5 0 -87 94 -202 208 -145 142 -238 243 -297
322 -88 119 -166 198 -399 407 -75 67 -216 205 -314 308 -99 102 -200 201
-225 220 -90 66 -236 123 -228 89z"/>
<path d="M8587 10183 c-112 -182 -113 -184 -97 -232 26 -79 10 -108 -133 -239
-45 -41 -67 -73 -103 -148 -55 -115 -128 -194 -257 -279 -127 -82 -507 -265
-1017 -487 l-205 -90 -95 6 c-52 4 -126 9 -163 13 l-68 6 -258 -257 -257 -257
-65 25 c-35 13 -102 32 -147 42 -81 18 -85 21 -120 68 l-36 49 -25 -29 c-14
-17 -41 -47 -60 -69 -26 -30 -35 -35 -42 -24 -5 8 -28 47 -51 88 -24 41 -47
76 -53 78 -5 1 -23 -33 -40 -77 -21 -58 -34 -80 -46 -80 -10 0 -20 8 -23 18
-3 9 -33 121 -66 247 -34 127 -65 233 -69 238 -24 25 -50 -45 -167 -445 -3
-10 -13 -18 -22 -18 -13 0 -31 41 -76 173 -73 212 -92 257 -99 237 -6 -16 -97
-415 -97 -425 0 -4 -12 -5 -27 -3 -31 3 -24 -21 -91 298 -28 131 -41 175 -52
175 -16 0 -37 -54 -85 -218 -21 -68 -30 -87 -43 -85 -9 2 -20 17 -24 33 -5 17
-33 124 -63 239 -30 115 -57 211 -59 214 -7 6 -10 -2 -45 -144 -17 -67 -40
-147 -52 -178 -21 -58 -96 -178 -114 -183 -6 -2 -27 75 -49 177 -24 113 -43
179 -50 177 -17 -6 -46 -92 -68 -207 -25 -128 -48 -178 -100 -226 -41 -36
-110 -73 -139 -74 -11 0 -28 32 -56 103 -22 56 -44 101 -49 101 -5 -1 -35 -62
-67 -135 -32 -74 -62 -137 -65 -141 -4 -4 -34 44 -67 107 -33 63 -64 113 -69
112 -4 -2 -33 -45 -63 -97 -89 -155 -79 -150 -328 -175 -88 -8 -200 -22 -250
-30 -49 -8 -333 -51 -630 -95 -804 -120 -1510 -229 -1595 -245 -41 -8 -129
-29 -195 -47 -115 -32 -120 -34 -123 -62 -3 -23 0 -27 15 -23 37 11 586 99
853 136 1102 156 2156 233 3345 248 493 5 1272 -8 1458 -26 l68 -6 -91 -90
-90 -90 -798 -1 c-745 0 -998 -7 -1397 -34 -494 -34 -875 -88 -1070 -152 l-70
-23 265 -3 265 -3 -255 -63 c-252 -63 -560 -138 -1204 -296 -182 -44 -332 -82
-334 -85 -3 -2 1 -18 8 -35 9 -21 18 -29 29 -26 9 3 115 28 236 56 1143 264
2226 416 3415 480 258 14 744 29 750 24 2 -3 -17 -26 -42 -51 l-47 -47 -323
-7 c-654 -15 -1238 -58 -1686 -124 -280 -41 -306 -46 -327 -61 -19 -14 -18
-16 25 -53 l44 -38 -99 -38 c-54 -21 -94 -40 -88 -42 7 -3 90 7 185 21 626 91
1319 158 1983 192 l130 6 -139 -143 c-264 -274 -327 -326 -876 -725 -151 -111
-363 -266 -470 -345 -107 -80 -201 -148 -207 -153 -7 -4 -23 0 -35 8 -48 34
-80 8 -54 -43 17 -31 83 -81 109 -81 25 0 32 28 13 49 -9 10 -16 20 -16 23 0
10 212 170 653 492 247 179 460 334 474 343 l25 17 -7 -42 c-10 -62 9 -52 34
17 25 70 65 101 129 101 33 0 41 -4 45 -22 5 -19 11 -332 8 -389 -1 -8 -106
-110 -233 -225 -128 -115 -291 -263 -363 -329 -72 -66 -157 -142 -189 -170
l-58 -49 -38 43 c-50 59 -81 47 -70 -28 2 -20 68 -123 88 -138 19 -15 68 -17
77 -3 3 6 1 26 -6 44 -12 35 -12 35 41 83 29 26 56 49 61 51 4 2 9 -21 11 -50
2 -41 7 -54 21 -56 15 -3 17 6 17 82 0 84 1 87 33 120 45 48 606 556 613 556
4 0 3 -68 -1 -150 -5 -113 -4 -154 5 -165 14 -17 86 -40 320 -100 471 -122
702 -184 707 -189 4 -4 -310 -461 -338 -490 -5 -6 -19 0 -35 15 l-26 24 -24
-30 c-13 -16 -24 -36 -24 -44 0 -39 148 -171 192 -171 28 0 98 22 98 30 0 4
-29 27 -65 51 -36 24 -65 48 -65 54 1 5 20 43 44 84 l44 73 4 -75 c3 -70 18
-110 34 -94 3 3 6 51 5 105 -1 62 4 115 12 139 14 41 165 269 197 298 16 15
33 12 236 -39 121 -31 296 -76 389 -101 200 -52 194 -52 720 -30 193 8 425 17
517 21 106 4 169 11 172 18 242 583 402 1317 500 2296 27 266 63 788 67 960
l2 65 8 -75 c5 -50 3 -87 -4 -110 -16 -47 -16 -3000 0 -3045 17 -50 26 769 21
1950 l-4 1080 27 -240 c115 -1029 299 -1947 515 -2575 82 -240 97 -270 131
-270 130 1 678 21 682 26 3 3 8 133 11 289 l5 284 145 -186 c80 -102 148 -193
152 -202 4 -9 10 -38 13 -66 l7 -50 12 30 12 29 17 -24 c9 -14 17 -39 17 -57
0 -26 4 -33 20 -33 14 0 28 16 46 51 22 44 24 54 12 66 -11 10 -21 11 -40 4
-25 -9 -33 0 -222 242 l-196 252 6 200 c4 110 8 201 9 203 8 9 147 -22 182
-41 41 -21 1045 -983 1064 -1018 5 -10 9 -56 9 -103 0 -105 18 -115 22 -12 l3
74 54 -48 53 -47 -25 -48 c-27 -50 -26 -71 4 -80 29 -10 54 10 84 68 26 50 28
57 15 86 -11 28 -17 32 -40 28 -24 -5 -64 30 -401 360 -206 201 -459 447 -562
547 -180 174 -193 188 -303 354 -62 95 -114 176 -114 181 0 5 -7 14 -15 21
-13 11 -274 381 -283 401 -1 3 29 -1 67 -10 l70 -16 798 -926 c439 -509 809
-939 823 -956 14 -17 120 -141 236 -275 116 -133 279 -321 362 -417 110 -127
153 -184 160 -212 7 -27 6 -77 -4 -166 -15 -131 -12 -163 11 -163 25 0 33 32
41 153 5 97 9 116 20 105 30 -31 124 -193 124 -215 0 -13 -14 -53 -30 -90 -16
-36 -30 -72 -30 -79 0 -20 54 -44 98 -44 44 0 59 13 87 77 11 26 31 50 51 63
36 21 40 30 24 61 -9 15 -2 37 30 108 54 115 52 135 -19 172 -29 16 -58 26
-63 22 -6 -3 -26 -39 -45 -79 -18 -41 -37 -74 -41 -73 -14 1 -147 162 -164
197 -9 20 -32 47 -51 61 -31 23 -489 542 -867 981 -115 134 -607 699 -813 934
-115 131 -574 659 -610 703 -16 18 -24 33 -20 33 30 0 563 -130 911 -221 128
-34 235 -60 237 -57 3 2 6 15 7 28 3 24 -6 27 -452 146 -250 67 -534 142 -630
167 l-175 46 -63 68 c-103 111 -103 107 24 99 442 -28 937 -89 1429 -176 219
-39 840 -155 883 -165 33 -8 27 11 -10 28 -34 16 -377 106 -578 152 -578 132
-1234 234 -1777 276 l-163 13 -37 39 -38 38 75 -6 c981 -84 1901 -253 3048
-562 89 -24 104 -26 112 -13 5 8 10 18 10 21 0 3 -251 83 -557 179 -307 95
-562 176 -567 181 -6 5 -2 11 8 15 17 7 563 -34 1244 -92 101 -9 186 -13 189
-11 3 3 -14 15 -37 27 -47 24 -61 25 -1165 130 -176 16 -365 35 -420 40 -86 9
-804 70 -819 70 -3 0 -6 7 -6 15 0 18 27 19 263 5 545 -32 776 -47 1112 -75
1070 -89 1978 -227 2774 -421 101 -25 185 -43 187 -41 6 6 -233 88 -396 137
-467 140 -894 231 -1664 355 -121 20 -221 37 -223 39 -2 2 -1 11 3 20 8 21 -1
21 480 -14 225 -16 472 -34 549 -40 176 -12 481 -34 830 -60 149 -11 293 -20
320 -19 l50 1 -65 19 c-87 25 -180 42 -455 79 -975 132 -1086 150 -1415 226
l-235 54 -46 -25 -47 -25 -48 60 c-27 33 -51 60 -54 59 -3 0 -34 -34 -70 -76
-40 -47 -66 -70 -69 -62 -2 8 -30 99 -61 202 -31 103 -60 189 -64 190 -5 1
-27 -49 -49 -110 -39 -111 -61 -139 -72 -90 -3 12 -12 54 -21 92 -31 140 -33
145 -59 145 -27 0 -28 -3 -76 -195 -17 -71 -35 -133 -39 -138 -3 -4 -28 45
-54 110 -26 65 -52 122 -56 127 -4 4 -38 -29 -74 -75 -35 -46 -94 -121 -129
-166 l-64 -83 -61 55 c-33 30 -64 55 -69 55 -4 0 -30 -35 -56 -77 -41 -64 -51
-74 -58 -60 -12 21 -107 22 -409 7 -107 -6 -269 -10 -360 -11 -141 -1 -175 2
-231 20 -74 23 -143 77 -174 135 -11 20 -22 36 -26 36 -3 0 -20 -22 -38 -50
-45 -70 -84 -95 -147 -95 -34 1 -62 8 -87 24 l-36 22 -45 -41 -45 -42 -193 8
-192 9 -58 144 c-31 79 -60 146 -62 148 -3 3 -17 -19 -32 -48 l-27 -54 -36 45
c-20 24 -61 72 -91 105 -69 75 -122 149 -140 194 -8 19 -43 69 -78 110 -35 42
-107 141 -159 221 -53 80 -103 151 -111 158 -25 19 -45 15 -110 -27 -57 -37
-238 -116 -382 -166 -36 -13 -74 -26 -85 -30 -11 -4 8 11 42 34 35 22 134 94
220 159 185 138 213 156 271 172 35 9 53 8 95 -4 65 -20 95 -42 346 -261 173
-150 274 -225 306 -225 16 0 -6 72 -63 210 -90 219 -140 376 -162 507 -31 187
-40 207 -146 350 -111 149 -150 220 -169 311 -8 36 -23 74 -33 84 -19 19 -20
17 -105 -119z m859 -2225 c47 -54 48 -58 23 -58 -16 0 -32 11 -46 33 -13 18
-23 36 -23 40 0 15 28 6 46 -15z m211 -245 c34 -37 63 -71 63 -74 0 -4 -26 0
-57 8 -55 14 -60 18 -102 80 l-43 66 38 -6 c32 -5 51 -19 101 -74z"/>
<path d="M6195 10138 c-139 -210 -316 -377 -550 -518 -74 -45 -253 -134 -309
-154 -10 -3 -16 -9 -14 -12 6 -6 106 19 308 76 329 92 555 124 768 108 183
-13 290 -55 447 -175 102 -77 188 -119 272 -134 93 -16 168 -42 171 -60 2 -14
-20 -15 -185 -16 -280 0 -498 -43 -783 -156 -119 -47 -883 -423 -888 -437 -2
-5 0 -16 5 -24 7 -13 34 -4 163 50 359 151 557 221 770 273 178 43 276 58 520
80 312 29 449 69 651 187 52 30 150 82 219 115 235 114 277 151 430 375 77
113 310 484 310 493 0 3 -4 1 -8 -5 -4 -6 -59 -39 -122 -73 -139 -75 -171
-104 -205 -189 -48 -120 -145 -244 -256 -331 -54 -42 -188 -120 -260 -152 -64
-28 -86 -32 -159 -33 -110 -1 -149 18 -278 134 -146 130 -262 223 -344 273
-40 24 -194 119 -341 211 -148 91 -272 166 -276 166 -5 0 -30 -33 -56 -72z"/>
<path d="M10040 9916 c0 -37 26 -69 137 -163 228 -194 415 -401 587 -648 99
-141 208 -266 358 -407 86 -79 119 -105 113 -88 -8 31 -116 251 -191 391 l-56
106 8 64 9 64 70 -3 c102 -5 124 -13 358 -124 274 -130 373 -169 712 -285 300
-102 485 -173 795 -307 107 -46 197 -82 199 -80 13 12 -23 39 -136 104 -441
251 -748 421 -813 450 -86 37 -616 285 -825 385 -178 86 -203 94 -301 106
-160 18 -318 77 -534 198 -105 60 -474 251 -483 251 -4 0 -7 -6 -7 -14z"/>
<path d="M13023 9564 c-10 -28 6 -133 28 -177 34 -68 82 -120 186 -203 54 -42
124 -102 156 -133 l58 -56 122 0 122 0 130 -52 c72 -29 274 -95 450 -147 479
-141 485 -142 496 -125 5 8 9 19 9 26 0 7 -63 32 -147 59 -404 126 -607 206
-850 333 -170 89 -304 179 -448 301 -81 70 -144 114 -206 145 -49 25 -91 45
-94 45 -3 0 -8 -7 -12 -16z"/>
</g>
</svg>
